HIERARCHY
ROOT root
{
	OFFSET 0.000000 0.000000 0.000000
	CHANNELS 6 Xposition Yposition Zposition Zrotation Yrotation Xrotation
	JOINT lhip
	{
		OFFSET 0.058581 -0.082280 -0.017664
		CHANNELS 3 Zrotation Yrotation Xrotation
		JOINT lknee
		{
			OFFSET 0.043451 -0.386469 0.008037
			CHANNELS 3 Zrotation Yrotation Xrotation
			JOINT lankle
			{
				OFFSET -0.014790 -0.426874 -0.037428
				CHANNELS 3 Zrotation Yrotation Xrotation
				JOINT ltoe
				{
					OFFSET 0.041054 -0.060286 0.122042
					CHANNELS 3 Zrotation Yrotation Xrotation
					End Site
					{
						OFFSET 0.000000 0.000000 0.000000
					}
				}
			}
		}
	}
	JOINT rhip
	{
		OFFSET -0.060310 -0.090513 -0.013543
		CHANNELS 3 Zrotation Yrotation Xrotation
		JOINT rknee
		{
			OFFSET -0.043257 -0.383688 -0.004843
			CHANNELS 3 Zrotation Yrotation Xrotation
			JOINT rankle
			{
				OFFSET 0.019056 -0.420046 -0.034562
				CHANNELS 3 Zrotation Yrotation Xrotation
				JOINT rtoe
				{
					OFFSET -0.034840 -0.062106 0.130323
					CHANNELS 3 Zrotation Yrotation Xrotation
					End Site
					{
						OFFSET 0.000000 0.000000 0.000000
					}
				}
			}
		}
	}
	JOINT lowerback
	{
		OFFSET 0.004439 0.124404 -0.038385
		CHANNELS 3 Zrotation Yrotation Xrotation
		JOINT upperback
		{
			OFFSET 0.004488 0.137956 0.026820
			CHANNELS 3 Zrotation Yrotation Xrotation
			JOINT chest
			{
				OFFSET -0.002265 0.056032 0.002855
				CHANNELS 3 Zrotation Yrotation Xrotation
				JOINT lowerneck
				{
					OFFSET -0.013390 0.211636 -0.033468
					CHANNELS 3 Zrotation Yrotation Xrotation
					JOINT upperneck
					{
						OFFSET 0.010113 0.088937 0.050410
						CHANNELS 3 Zrotation Yrotation Xrotation
						End Site
						{
							OFFSET 0.000000 0.000000 0.000000
						}
					}
				}
				JOINT lclavicle
				{
					OFFSET 0.071702 0.114000 -0.018898
					CHANNELS 3 Zrotation Yrotation Xrotation
					JOINT lshoulder
					{
						OFFSET 0.122921 0.045205 -0.019046
						CHANNELS 3 Zrotation Yrotation Xrotation
						JOINT lelbow
						{
							OFFSET 0.255332 -0.015649 -0.022946
							CHANNELS 3 Zrotation Yrotation Xrotation
							JOINT lwrist
							{
								OFFSET 0.265709 0.012698 -0.007375
								CHANNELS 3 Zrotation Yrotation Xrotation
								End Site
								{
									OFFSET 0.000000 0.000000 0.000000
								}
							}
						}
					}
				}
				JOINT rclavicle
				{
					OFFSET -0.082954 0.112472 -0.023707
					CHANNELS 3 Zrotation Yrotation Xrotation
					JOINT rshoulder
					{
						OFFSET -0.113228 0.046853 -0.008472
						CHANNELS 3 Zrotation Yrotation Xrotation
						JOINT relbow
						{
							OFFSET -0.260127 -0.014369 -0.031269
							CHANNELS 3 Zrotation Yrotation Xrotation
							JOINT rwrist
							{
								OFFSET -0.269108 0.006794 -0.006027
								CHANNELS 3 Zrotation Yrotation Xrotation
								End Site
								{
									OFFSET 0.000000 0.000000 0.000000
								}
							}
						}
					}
				}
			}
		}
	}
}
MOTION
Frames: 17
Frame Time: 0.033333
0.182367 0.251363 0.998308 89.785261 0.550749 80.999038 7.510000 3.606067 12.325961 -1.414038 -4.592079 -0.143808 0.587209 5.851162 -12.941656 0.000000 -0.000000 0.000000 -3.025983 -4.728949 9.141797 -3.246464 0.429504 8.300083 -0.139361 -0.205658 -16.185248 0.000000 -0.000000 0.000000 0.215909 1.006911 10.522893 1.358200 0.015289 4.310231 -0.440870 0.357013 -1.882143 3.814298 2.882888 -10.757711 1.544426 -5.504603 8.004014 -32.554326 -1.825804 -3.777645 -49.606889 -11.094025 20.692476 -87.370240 -79.073701 105.797202 3.632596 -10.722650 -12.026626 32.209176 0.706882 2.191831 42.743324 2.422759 17.877536 -11.449035 79.701359 3.490672 -0.437610 16.577232 -1.520507 
0.185301 0.251455 0.988777 90.060629 -0.069029 84.542486 6.810185 2.242782 8.515215 -1.653368 -4.438570 0.264456 0.163911 6.541167 -11.575869 0.000000 -0.000000 0.000000 -3.737403 -3.470838 7.133949 -2.869961 1.693615 6.124520 4.424382 -3.083085 -12.404796 0.000000 -0.000000 0.000000 0.536272 1.102589 4.365330 0.613955 -0.149176 5.733009 -1.060965 0.247495 0.788411 4.050894 2.455865 -12.665984 1.692063 -5.715701 8.390716 -27.784437 -2.179572 -2.827289 -54.201534 -14.678867 22.112820 -91.194196 -79.414784 112.345432 0.944614 -10.443398 -16.404860 27.197251 1.506644 1.118238 48.992620 3.636201 21.030634 -23.530415 81.929467 -6.250764 1.919613 15.068235 -3.223369 
0.186955 0.252822 0.986942 89.954509 -0.221829 84.723391 6.650683 2.139111 8.567883 -1.606203 -4.186170 0.167944 0.094759 6.393870 -11.553681 0.000000 -0.000000 0.000000 -4.163878 -3.372522 7.158009 -2.682010 1.406171 5.803920 5.056919 -2.845738 -12.022256 0.000000 -0.000000 0.000000 0.541114 1.377242 3.889851 0.674369 -0.556338 6.023424 -1.191913 0.116080 0.762294 4.206306 2.541180 -12.461221 1.515663 -5.697616 8.454531 -27.537704 -2.416205 -2.754825 -54.501237 -14.913154 22.643514 -96.239376 -79.173603 117.590979 0.280129 -10.797021 -17.025595 26.563084 2.190008 0.976613 49.906288 4.384124 21.952833 -25.313273 83.693576 -8.036585 2.462563 15.016623 -5.160465 
0.188010 0.253192 0.986121 89.530443 -0.203251 84.616837 6.678763 2.032457 8.936831 -1.595964 -4.010940 0.027897 0.072117 6.570804 -11.585493 0.000000 -0.000000 0.000000 -4.238722 -3.174274 7.303761 -2.623969 1.337140 5.644681 5.122533 -2.615067 -11.836122 0.000000 -0.000000 0.000000 0.599963 1.373533 3.954621 0.714867 -0.428855 6.078964 -1.179198 0.229443 0.710471 4.259590 2.340616 -12.340296 1.402761 -5.979689 8.424848 -27.294711 -2.304118 -2.767822 -54.847666 -15.034914 23.216610 -102.402014 -78.897072 122.836446 0.240462 -10.745132 -20.113727 26.101335 2.796131 0.744160 50.473189 5.264410 22.957620 -28.565486 85.352467 -12.474783 2.151916 15.169164 -8.270337 
0.188134 0.253265 0.985694 89.473022 -0.208145 84.662884 6.643729 1.768382 8.826652 -1.575128 -3.729960 0.121547 0.109890 6.567630 -11.608040 0.000000 -0.000000 0.000000 -4.282005 -3.135930 7.194109 -2.596100 1.143654 5.625799 5.202223 -2.486592 -11.714740 0.000000 -0.000000 0.000000 0.586583 1.435914 4.115735 0.741422 -0.396771 5.767735 -1.115326 0.158097 0.755307 4.357420 2.088697 -12.381861 1.351582 -6.124934 8.572368 -27.264673 -1.960533 -2.772073 -55.118597 -14.986813 23.509188 -107.477879 -78.944809 126.757795 1.144967 -10.863978 -21.947795 25.850064 2.813164 0.527896 50.456742 5.946938 23.730099 -25.881268 86.363930 -10.615990 0.874666 15.161008 -9.529473 
0.189311 0.252813 0.985530 88.990660 -0.344907 84.684506 6.515277 1.784579 9.050843 -1.586985 -3.372895 -0.067291 0.051333 6.595713 -11.647743 0.000000 -0.000000 0.000000 -4.456476 -3.071469 7.113524 -2.615383 1.079664 5.620946 5.310474 -2.064307 -11.669603 0.000000 -0.000000 0.000000 0.429077 1.574010 3.946572 0.713967 -0.064382 5.889729 -1.081689 0.369313 0.664713 4.427331 1.696078 -12.396897 1.403774 -6.557204 8.750268 -27.182194 -1.407262 -2.874084 -55.395125 -14.816301 23.437143 -115.547837 -78.872315 134.692801 0.541142 -11.237599 -23.475189 25.697980 2.670136 0.492979 50.937113 6.216374 23.905806 -32.798473 87.769778 -17.384381 2.089624 15.467822 -9.832703 
0.190059 0.252965 0.985374 88.889931 -0.379872 84.618772 6.386589 1.641807 9.267760 -1.489894 -3.196662 -0.281258 0.043164 6.599140 -11.601176 0.000000 -0.000000 0.000000 -4.580827 -3.133812 7.199784 -2.596574 0.932367 5.545678 5.336965 -1.763505 -11.641640 0.000000 -0.000000 0.000000 0.490686 1.675437 3.799640 0.655201 0.060447 6.081048 -1.124875 0.559060 0.725342 4.496701 1.264007 -12.323118 1.492896 -6.975637 8.661291 -27.063115 -0.972229 -3.121389 -55.797031 -14.808058 23.635336 -122.971615 -78.804826 141.615729 -0.445346 -11.666516 -25.428984 25.488846 2.694806 0.412915 50.751675 6.708392 24.167401 -37.270175 88.920118 -21.572179 3.263771 15.511857 -10.722604 
0.190687 0.253441 0.984533 89.123928 -0.487177 84.812257 6.190239 1.306749 9.039393 -1.425300 -3.055632 -0.330631 0.021090 6.579768 -11.523249 0.000000 -0.000000 0.000000 -4.796418 -3.219292 7.077523 -2.492073 0.724985 5.397671 5.360834 -1.712322 -11.546242 0.000000 -0.000000 0.000000 0.439941 2.019934 3.399253 0.626169 0.075217 6.096609 -1.116435 0.460448 0.986463 4.543472 0.696032 -12.356443 1.508837 -7.601232 8.776472 -26.788986 -0.578694 -3.146328 -56.176018 -15.214555 23.835974 -127.028556 -78.342955 144.960366 -1.415182 -12.334963 -27.540966 25.080555 2.535676 0.296977 50.802191 7.072049 24.575467 -96.690176 89.765996 -81.256854 4.130176 15.777557 -11.490917 
0.191226 0.253934 0.984201 89.366617 -0.611338 84.899024 5.980299 1.142508 8.949142 -1.351019 -3.146943 -0.417917 0.038662 6.568015 -11.469942 0.000000 -0.000000 0.000000 -5.023010 -3.245530 7.055245 -2.396058 0.492704 5.338056 5.410262 -1.705127 -11.548109 0.000000 -0.000000 0.000000 0.395683 2.121180 3.212721 0.571569 0.151049 6.164215 -1.177922 0.504348 0.962785 4.489173 0.177220 -12.119962 1.675695 -8.163769 8.916109 -26.499090 -0.712647 -2.970832 -56.141650 -15.538448 24.198162 -131.002983 -77.747802 147.888991 -2.001554 -13.064130 -30.323572 24.825088 2.539530 0.487403 50.703960 7.269603 24.870643 161.174523 89.142580 176.114295 4.311397 15.839904 -12.429253 
0.190692 0.254030 0.984334 89.423628 -0.620862 84.823878 5.971290 1.099229 9.031641 -1.359476 -3.109655 -0.592586 -0.008191 6.498912 -11.400871 0.000000 -0.000000 0.000000 -4.978798 -3.166092 6.944262 -2.494346 0.188823 5.545626 5.483919 -1.509038 -11.570733 0.000000 -0.000000 0.000000 0.308970 2.117457 3.361432 0.525687 0.485791 6.258988 -1.083461 0.613849 0.864688 4.454720 -0.002338 -11.722502 1.730061 -8.420687 9.219607 -26.452357 -1.301919 -2.930641 -55.832658 -15.778739 24.794247 -133.828591 -77.072596 149.727279 -1.786349 -13.633999 -31.291047 24.691814 2.762999 0.803889 50.036262 7.728997 24.963370 137.696422 88.210686 151.852889 4.363316 16.333950 -13.946399 
0.188747 0.254252 0.984768 89.955582 -0.609504 84.678435 5.969702 0.852468 8.837442 -1.354827 -3.281347 -0.407674 0.094293 6.377562 -11.383374 0.000000 -0.000000 0.000000 -4.905497 -3.193203 6.997745 -2.548872 -0.136972 5.617859 5.510129 -1.715761 -11.551313 0.000000 -0.000000 0.000000 0.338127 2.051934 4.197792 0.407360 0.424390 5.819338 -1.102000 0.642415 0.687367 4.480374 -0.216426 -11.381157 1.798061 -8.640523 9.833333 -26.245005 -1.655072 -3.085756 -55.739522 -15.887658 25.047235 -134.349626 -76.604767 150.417115 -1.876122 -13.392783 -30.103070 24.264049 3.264587 0.798607 50.694855 6.748267 25.510435 163.173878 88.071213 176.162992 4.681956 16.523435 -14.247424 
0.188165 0.254555 0.985046 90.269077 -0.669133 84.650163 5.878337 0.849978 8.721700 -1.301306 -3.596070 -0.386722 0.084345 6.346833 -11.354750 0.000000 -0.000000 0.000000 -4.985215 -3.294320 6.992986 -2.554596 -0.290118 5.665048 5.576056 -1.762276 -11.574552 0.000000 -0.000000 0.000000 0.290200 2.107452 4.413756 0.360258 0.397173 5.564318 -1.152526 0.629915 0.785494 4.456743 -0.218000 -10.932870 1.785363 -8.777169 10.487850 -26.157072 -1.731147 -3.254245 -55.590692 -16.132255 25.207546 -133.328655 -76.448367 149.343806 -0.743003 -13.002326 -29.753347 24.138808 3.266580 0.789627 50.536638 6.850884 25.662648 152.365287 87.660917 164.523922 4.235929 16.042638 -16.227253 
0.188406 0.255004 0.984999 90.733736 -0.730578 84.715142 5.855900 0.950103 8.529772 -1.331047 -4.081275 -0.411424 0.056818 6.316491 -11.170988 0.000000 -0.000000 0.000000 -5.105844 -3.695401 7.070728 -2.557752 -0.211046 5.464287 5.566780 -1.872099 -11.554100 0.000000 -0.000000 0.000000 0.175593 2.254177 4.256867 0.407410 0.117435 5.532127 -1.142069 0.583206 0.904145 4.323149 -0.442694 -10.200402 1.753673 -8.745068 10.932903 -26.000220 -1.818941 -3.322941 -55.765522 -16.067648 25.606182 -131.757690 -76.605093 146.938057 2.488259 -11.427480 -30.415480 24.009484 3.246373 0.826643 50.350088 7.294610 25.817949 139.480247 87.375842 151.243925 1.527550 15.458811 -17.335284 
0.187830 0.255371 0.984908 90.841574 -0.771449 84.750527 5.815022 0.853930 8.414507 -1.354502 -4.296590 -0.487976 0.065991 6.503338 -11.041017 0.000000 -0.000000 0.000000 -5.155275 -3.805415 6.950395 -2.577449 -0.146716 5.494473 5.513809 -1.965289 -11.543886 0.000000 -0.000000 0.000000 0.098926 2.263101 4.365640 0.404896 0.065661 5.294038 -1.134690 0.619064 1.005358 4.155989 -0.735616 -9.301100 1.802301 -8.893838 11.710319 -25.839877 -1.960241 -3.265103 -55.784642 -15.836396 26.122545 -130.377200 -76.882197 143.790868 5.693243 -9.857208 -31.901298 23.939283 3.206321 0.798289 50.470068 7.715386 25.978993 133.233219 87.414606 144.460759 -0.354774 14.723351 -17.381673 
0.186962 0.255868 0.984891 90.751815 -0.819622 84.759492 5.730916 0.725862 8.383061 -1.375477 -4.361334 -0.592814 0.216021 6.784832 -10.914934 0.000000 -0.000000 0.000000 -5.218269 -3.801122 6.804667 -2.576344 0.104655 5.539275 5.569710 -2.144319 -11.447738 0.000000 -0.000000 0.000000 0.081378 2.277577 4.543697 0.374969 0.129259 4.971614 -1.185892 0.598171 1.127152 4.049735 -1.003038 -8.435451 1.597287 -9.108554 13.031353 -25.683791 -2.019459 -3.161912 -55.782126 -15.742271 26.426867 -129.690119 -77.090943 142.077999 7.832403 -8.351661 -32.955166 24.112143 3.355480 0.833565 50.470062 8.340401 26.058767 121.403978 88.004989 132.488524 -1.733884 13.999095 -16.408077 
0.185626 0.256382 0.985353 90.813991 -0.813361 84.595264 5.728314 0.862659 8.392306 -1.382194 -4.714026 -0.530228 0.353562 6.936845 -10.883139 0.000000 -0.000000 0.000000 -5.264406 -4.018134 6.849476 -2.572931 0.272341 5.597884 5.570062 -2.201384 -11.418008 0.000000 -0.000000 0.000000 0.051548 2.340551 4.885058 0.434646 0.032191 4.714885 -1.171501 0.608309 1.210220 3.884345 -1.707330 -7.322511 1.342203 -9.663345 14.564487 -25.522543 -2.233619 -3.060173 -55.939985 -15.613653 26.689845 -129.085938 -77.415839 140.952893 10.490702 -6.625482 -32.734402 24.282804 3.706373 0.852179 50.418618 8.748705 25.822477 94.341807 88.632488 105.283359 -3.027609 13.539032 -14.963805 
0.184812 0.256949 0.985380 90.775013 -0.848109 84.540687 5.659423 0.796176 8.396717 -1.416136 -4.767950 -0.551895 0.480585 7.095351 -10.821651 0.000000 -0.000000 0.000000 -5.354689 -4.096797 6.830676 -2.553131 0.447270 5.590087 5.525046 -2.281479 -11.370948 0.000000 -0.000000 0.000000 -0.033674 2.404629 4.838513 0.527678 -0.021829 4.654227 -1.246507 0.664108 1.279086 3.879544 -2.200485 -6.052125 0.884364 -10.346351 16.576967 -25.362273 -2.298204 -2.822424 -56.052243 -15.900949 26.721278 -125.686316 -77.919377 137.602279 12.124568 -6.465609 -32.079307 24.408460 4.066909 0.964425 50.573785 9.279605 25.646279 39.275624 88.678322 50.640752 -4.053212 13.332223 -13.282754 
